<?xml version="1.0" encoding="UTF-8"?>
<svg xmlns="http://www.w3.org/2000/svg" xmlns:xlink="http://www.w3.org/1999/xlink" width="841.92pt" height="595.499987pt" viewBox="0 0 841.92 595.499987" version="1.2">
<defs>
<clipPath id="clip1">
  <path d="M 123 366 L 465 366 L 465 594.824219 L 123 594.824219 Z M 123 366 "/>
</clipPath>
<clipPath id="clip2">
  <path d="M 104.082031 345 L 484 345 L 484 374 L 104.082031 374 Z M 104.082031 345 "/>
</clipPath>
<clipPath id="clip3">
  <path d="M 104.082031 328 L 484 328 L 484 346 L 104.082031 346 Z M 104.082031 328 "/>
</clipPath>
<clipPath id="clip4">
  <path d="M 540 0 L 736.75 0 L 736.75 134 L 540 134 Z M 540 0 "/>
</clipPath>
</defs>
<g id="surface1">
<g clip-path="url(#clip1)" clip-rule="nonzero">
<path style=" stroke:none;fill-rule:nonzero;fill:rgb(63.919067%,38.42926%,22.749329%);fill-opacity:1;" d="M 464.890625 595.015625 L 123.46875 595.015625 L 123.46875 366.675781 L 464.890625 366.675781 L 464.890625 595.015625 "/>
</g>
<path style=" stroke:none;fill-rule:nonzero;fill:rgb(48.629761%,27.839661%,16.468811%);fill-opacity:1;" d="M 123.46875 380.230469 L 464.890625 401.609375 L 464.890625 366.675781 L 123.46875 366.675781 L 123.46875 380.230469 "/>
<g clip-path="url(#clip2)" clip-rule="nonzero">
<path style=" stroke:none;fill-rule:nonzero;fill:rgb(66.668701%,40.779114%,26.269531%);fill-opacity:1;" d="M 483.535156 373.890625 L 104.824219 373.890625 L 104.824219 345.90625 L 483.535156 345.90625 L 483.535156 373.890625 "/>
</g>
<g clip-path="url(#clip3)" clip-rule="nonzero">
<path style=" stroke:none;fill-rule:nonzero;fill:rgb(73.728943%,49.01886%,35.289001%);fill-opacity:1;" d="M 483.535156 345.90625 L 464.890625 328.539062 L 123.46875 328.539062 L 104.824219 345.90625 L 483.535156 345.90625 "/>
</g>
<path style=" stroke:none;fill-rule:nonzero;fill:rgb(91.758728%,88.238525%,75.689697%);fill-opacity:1;" d="M 438.703125 522.46875 L 156.855469 522.46875 L 156.855469 439.21875 L 438.703125 439.21875 L 438.703125 522.46875 "/>
<path style=" stroke:none;fill-rule:nonzero;fill:rgb(12.939453%,17.248535%,19.60907%);fill-opacity:1;" d="M 214.128906 495.296875 C 216.390625 495.296875 218.511719 494.855469 220.484375 494.003906 C 222.453125 493.136719 224.183594 491.949219 225.671875 490.449219 C 227.152344 488.945312 228.332031 487.195312 229.179688 485.191406 C 230.046875 483.199219 230.472656 481.058594 230.472656 478.792969 C 230.472656 476.515625 230.046875 474.394531 229.179688 472.421875 C 228.332031 470.441406 227.152344 468.707031 225.671875 467.222656 C 224.183594 465.730469 222.453125 464.558594 220.484375 463.699219 C 218.511719 462.839844 216.390625 462.40625 214.128906 462.40625 L 204.460938 462.40625 L 204.460938 495.296875 Z M 200.351562 458.296875 L 214.128906 458.296875 C 216.9375 458.296875 219.597656 458.835938 222.09375 459.917969 C 224.59375 460.992188 226.765625 462.453125 228.605469 464.285156 C 230.441406 466.128906 231.890625 468.296875 232.96875 470.808594 C 234.035156 473.3125 234.582031 475.976562 234.582031 478.792969 C 234.582031 481.609375 234.035156 484.269531 232.96875 486.78125 C 231.890625 489.285156 230.441406 491.476562 228.605469 493.359375 C 226.765625 495.238281 224.59375 496.707031 222.09375 497.785156 C 219.597656 498.867188 216.9375 499.398438 214.128906 499.398438 L 200.351562 499.398438 L 200.351562 458.296875 "/>
<path style=" stroke:none;fill-rule:nonzero;fill:rgb(12.939453%,17.248535%,19.60907%);fill-opacity:1;" d="M 241.789062 478.820312 C 241.789062 481.257812 242.25 483.554688 243.183594 485.730469 C 244.136719 487.910156 245.410156 489.8125 247.027344 491.433594 C 248.652344 493.0625 250.550781 494.347656 252.71875 495.289062 C 254.882812 496.226562 257.183594 496.707031 259.597656 496.707031 C 262.019531 496.707031 264.304688 496.226562 266.457031 495.289062 C 268.605469 494.347656 270.488281 493.0625 272.113281 491.433594 C 273.730469 489.8125 275.015625 487.910156 275.949219 485.730469 C 276.890625 483.554688 277.355469 481.257812 277.355469 478.820312 C 277.355469 476.394531 276.890625 474.097656 275.949219 471.941406 C 275.015625 469.78125 273.730469 467.894531 272.113281 466.265625 C 270.488281 464.636719 268.605469 463.351562 266.457031 462.40625 C 264.304688 461.46875 262.019531 461 259.597656 461 C 257.183594 461 254.882812 461.46875 252.71875 462.40625 C 250.550781 463.351562 248.652344 464.636719 247.027344 466.265625 C 245.410156 467.894531 244.136719 469.78125 243.183594 471.941406 C 242.25 474.097656 241.789062 476.394531 241.789062 478.820312 Z M 237.679688 478.851562 C 237.679688 475.839844 238.257812 473 239.402344 470.335938 C 240.566406 467.671875 242.128906 465.34375 244.121094 463.34375 C 246.109375 461.347656 248.433594 459.773438 251.085938 458.625 C 253.734375 457.46875 256.566406 456.890625 259.566406 456.890625 C 262.574219 456.890625 265.398438 457.46875 268.058594 458.625 C 270.707031 459.773438 273.023438 461.347656 275.023438 463.34375 C 277.003906 465.34375 278.585938 467.671875 279.730469 470.335938 C 280.878906 473 281.457031 475.839844 281.457031 478.851562 C 281.457031 481.867188 280.878906 484.695312 279.730469 487.367188 C 278.585938 490.03125 277.003906 492.351562 275.023438 494.355469 C 273.023438 496.347656 270.707031 497.925781 268.058594 499.082031 C 265.398438 500.230469 262.574219 500.816406 259.566406 500.816406 C 256.566406 500.816406 253.734375 500.230469 251.085938 499.082031 C 248.433594 497.925781 246.109375 496.347656 244.121094 494.355469 C 242.128906 492.351562 240.566406 490.03125 239.402344 487.367188 C 238.257812 484.695312 237.679688 481.867188 237.679688 478.851562 "/>
<path style=" stroke:none;fill-rule:nonzero;fill:rgb(12.939453%,17.248535%,19.60907%);fill-opacity:1;" d="M 308.652344 458.296875 L 312.753906 458.296875 L 312.753906 499.398438 L 308.652344 499.398438 L 289.542969 466.515625 L 289.542969 499.398438 L 285.441406 499.398438 L 285.441406 458.296875 L 289.542969 458.296875 L 308.652344 491.179688 L 308.652344 458.296875 "/>
<path style=" stroke:none;fill-rule:nonzero;fill:rgb(12.939453%,17.248535%,19.60907%);fill-opacity:1;" d="M 325.710938 479.324219 L 334.847656 479.324219 L 330.273438 465.046875 Z M 345.570312 499.398438 L 341.292969 499.398438 L 336.128906 483.425781 L 324.359375 483.425781 L 319.253906 499.398438 L 314.980469 499.398438 L 328.101562 458.296875 L 332.445312 458.296875 L 345.570312 499.398438 "/>
<path style=" stroke:none;fill-rule:nonzero;fill:rgb(12.939453%,17.248535%,19.60907%);fill-opacity:1;" d="M 339.242188 462.40625 L 339.242188 458.296875 L 366.554688 458.296875 L 366.554688 462.40625 L 354.949219 462.40625 L 354.949219 499.398438 L 350.839844 499.398438 L 350.839844 462.40625 L 339.242188 462.40625 "/>
<path style=" stroke:none;fill-rule:nonzero;fill:rgb(12.939453%,17.248535%,19.60907%);fill-opacity:1;" d="M 369.484375 458.296875 L 396.789062 458.296875 L 396.789062 462.40625 L 373.578125 462.40625 L 373.578125 479.324219 L 392.6875 479.324219 L 392.6875 483.425781 L 373.578125 483.425781 L 373.578125 495.296875 L 396.789062 495.296875 L 396.789062 499.398438 L 369.484375 499.398438 L 369.484375 458.296875 "/>
<path style=" stroke:none;fill-rule:nonzero;fill:rgb(44.709778%,25.878906%,16.468811%);fill-opacity:1;" d="M 382.527344 339.308594 L 205.835938 339.308594 L 214.972656 332.1875 L 373.382812 332.1875 L 382.527344 339.308594 "/>
<path style=" stroke:none;fill-rule:nonzero;fill:rgb(73.728943%,36.859131%,30.589294%);fill-opacity:1;" d="M 218.804688 96.351562 C 218.804688 96.351562 189.992188 84.804688 202.675781 64.59375 C 202.675781 64.59375 238.445312 72.101562 247.074219 70.9375 C 255.695312 69.789062 359.484375 72.101562 369.957031 68.632812 C 380.445312 65.171875 339.835938 88.847656 339.835938 88.847656 L 218.804688 96.351562 "/>
<path style=" stroke:none;fill-rule:nonzero;fill:rgb(81.17981%,42.349243%,32.939148%);fill-opacity:1;" d="M 309.117188 121.015625 C 309.117188 121.015625 278.5625 126.730469 249.929688 117.140625 C 249.929688 117.140625 229.179688 125.511719 198.058594 117.140625 C 198.058594 117.140625 142.03125 134.46875 142.386719 97.507812 C 142.386719 97.507812 132.074219 89.425781 197.769531 88.269531 C 197.769531 88.269531 244.566406 81.335938 261.65625 82.492188 C 278.75 83.648438 308.949219 88.269531 342.828125 85.953125 C 376.714844 83.648438 309.117188 121.015625 309.117188 121.015625 "/>
<path style=" stroke:none;fill-rule:nonzero;fill:rgb(89.019775%,49.409485%,37.249756%);fill-opacity:1;" d="M 332.917969 139.445312 C 332.917969 139.445312 307.96875 142.226562 282.40625 152.621094 C 282.40625 152.621094 248.78125 172.253906 229.179688 174.570312 C 229.179688 174.570312 169.242188 223.078125 145.039062 183.808594 C 145.039062 183.808594 128.90625 180.671875 176.160156 164.339844 C 176.160156 164.339844 227.683594 136.449219 237.070312 129.523438 C 246.472656 122.597656 327.386719 96.03125 342.828125 89.097656 L 332.917969 139.445312 "/>
<path style=" stroke:none;fill-rule:nonzero;fill:rgb(94.119263%,61.569214%,47.44873%);fill-opacity:1;" d="M 308.714844 215.382812 C 308.714844 215.382812 317.941406 209.15625 321.601562 186.144531 C 321.601562 186.144531 355.207031 154.875 388.65625 147.355469 C 388.65625 147.355469 400.90625 155.308594 406.683594 179.128906 C 406.683594 179.128906 409.503906 200.191406 385.59375 223.480469 C 385.59375 223.480469 347.667969 255.300781 361.496094 274.820312 C 361.496094 274.820312 368.210938 288.9375 396.734375 263.816406 C 396.734375 263.816406 416.679688 243.808594 429.355469 232.253906 C 442.039062 220.703125 474.695312 196.066406 487.371094 177.589844 C 500.054688 159.105469 521.949219 142.550781 534.625 119.453125 C 534.625 119.453125 550.765625 110.214844 570.359375 107.902344 C 589.953125 105.597656 667.183594 103.28125 695.992188 98.664062 C 724.804688 94.042969 659.695312 -3.269531 659.695312 -3.269531 C 659.695312 -3.269531 489.109375 30.605469 433.78125 49.089844 C 433.78125 49.089844 340.042969 75.261719 329.28125 86.046875 C 329.28125 86.046875 308.355469 96.828125 308.835938 113.769531 C 308.835938 113.769531 286.246094 164.589844 278.5625 179.988281 C 278.5625 179.988281 272.417969 189.226562 270.882812 204.628906 L 261.65625 307.71875 C 261.65625 307.71875 292.390625 316.957031 298.542969 256.898438 C 298.542969 256.898438 306.410156 243.808594 308.714844 215.382812 "/>
<path style=" stroke:none;fill-rule:nonzero;fill:rgb(92.158508%,72.938538%,64.309692%);fill-opacity:1;" d="M 261.65625 307.71875 L 264.648438 274.265625 C 269.972656 275.285156 275.289062 280.375 275.289062 280.375 C 272.621094 293.542969 267.09375 304.210938 264.132812 308.136719 C 262.589844 307.984375 261.65625 307.71875 261.65625 307.71875 "/>
<path style=" stroke:none;fill-rule:nonzero;fill:rgb(92.158508%,72.938538%,64.309692%);fill-opacity:1;" d="M 363.210938 276.804688 C 363.722656 271.957031 367.753906 263.511719 385.785156 253.039062 C 385.785156 253.039062 394.875 255.695312 400.851562 259.871094 C 398.308594 262.308594 396.734375 263.816406 396.734375 263.816406 C 375.804688 282.238281 366.621094 279.554688 363.210938 276.804688 "/>
<path style=" stroke:none;fill-rule:nonzero;fill:rgb(90.979004%,62.748718%,52.549744%);fill-opacity:1;" d="M 143.609375 183.28125 C 141.097656 181.898438 139.085938 177.347656 174.292969 165.003906 C 178.691406 166.082031 182.433594 168.382812 177.894531 172.316406 C 171.550781 177.796875 143.625 183.28125 143.609375 183.28125 "/>
<path style=" stroke:none;fill-rule:nonzero;fill:rgb(85.099792%,53.329468%,44.709778%);fill-opacity:1;" d="M 152.585938 97.550781 C 148.769531 97.550781 145.070312 97.414062 142.007812 97.050781 C 141.15625 95.613281 141.386719 91.097656 174.816406 89.097656 C 176.191406 91.089844 177.589844 93.984375 176.359375 96.351562 C 176.359375 96.351562 163.941406 97.550781 152.585938 97.550781 "/>
<g clip-path="url(#clip4)" clip-rule="nonzero">
<path style=" stroke:none;fill-rule:nonzero;fill:rgb(93.328857%,27.449036%,14.118958%);fill-opacity:1;" d="M 736.199219 -26.976562 L 736.199219 127.679688 L 565.339844 133.929688 L 540.730469 2.902344 L 736.199219 -26.976562 "/>
</g>
<path style=" stroke:none;fill-rule:nonzero;fill:rgb(70.199585%,11.369324%,18.429565%);fill-opacity:1;" d="M 264.496094 339.332031 L 319.914062 339.332031 C 365.003906 287.367188 357.289062 261.769531 357.289062 261.769531 C 357.21875 261.21875 357.144531 260.679688 357.054688 260.140625 C 353.5 239.675781 334.0625 225.96875 313.640625 229.523438 C 297.820312 232.285156 286.058594 244.582031 283.210938 259.507812 C 275.5 246.433594 260.28125 238.824219 244.460938 241.578125 C 224.039062 245.140625 210.359375 264.613281 213.914062 285.078125 C 214.015625 285.617188 214.113281 286.152344 214.242188 286.691406 L 214.234375 286.691406 L 214.25 286.761719 C 215.5625 292.71875 218.238281 298.0625 221.890625 302.507812 C 231.726562 316.113281 248.773438 329.140625 264.496094 339.332031 "/>
</g>
</svg>
