<?xml version="1.0" encoding="UTF-8"?>
<svg xmlns="http://www.w3.org/2000/svg" xmlns:xlink="http://www.w3.org/1999/xlink" width="810pt" height="809.999993pt" viewBox="0 0 810 809.999993" version="1.2">
<defs>
<clipPath id="clip1">
  <path d="M 81 398 L 675 398 L 675 802.765625 L 81 802.765625 Z M 81 398 "/>
</clipPath>
<clipPath id="clip2">
  <path d="M 588 7.085938 L 621 7.085938 L 621 53 L 588 53 Z M 588 7.085938 "/>
</clipPath>
<clipPath id="clip3">
  <path d="M 162 7.085938 L 190 7.085938 L 190 35 L 162 35 Z M 162 7.085938 "/>
</clipPath>
</defs>
<g id="surface1">
<path style=" stroke:none;fill-rule:nonzero;fill:rgb(55.288696%,71.759033%,34.118652%);fill-opacity:1;" d="M 507.007812 169.480469 C 507.007812 169.480469 523.023438 291.875 431.976562 398.183594 L 351.046875 398.183594 C 386.375 360.75 401.339844 309.9375 401.351562 259.261719 C 401.359375 233.847656 397.558594 208.53125 391.769531 183.808594 C 384.207031 151.503906 366.21875 114.410156 366.21875 114.410156 L 493.234375 95.3125 C 493.234375 95.3125 505.605469 131.269531 507.007812 169.480469 "/>
<path style=" stroke:none;fill-rule:nonzero;fill:rgb(49.409485%,65.098572%,29.40979%);fill-opacity:1;" d="M 460.441406 277.199219 L 433.859375 272.601562 C 442.480469 222.773438 435.75 191.527344 435.679688 191.21875 L 461.984375 185.226562 C 462.320312 186.6875 470.070312 221.5625 460.441406 277.199219 "/>
<path style=" stroke:none;fill-rule:nonzero;fill:rgb(97.648621%,67.059326%,12.159729%);fill-opacity:1;" d="M 330.167969 402.8125 L 304.832031 393.554688 C 347.332031 277.382812 325.214844 203.855469 299.171875 162.636719 L 321.988281 148.230469 C 351.257812 194.570312 376.4375 276.347656 330.167969 402.8125 "/>
<path style=" stroke:none;fill-rule:nonzero;fill:rgb(97.648621%,67.059326%,12.159729%);fill-opacity:1;" d="M 262.988281 80.445312 C 254.28125 62.660156 245.988281 48.953125 240.578125 40.585938 L 263.210938 25.925781 C 269.035156 34.910156 277.925781 49.601562 287.21875 68.589844 L 262.988281 80.445312 "/>
<g clip-path="url(#clip1)" clip-rule="nonzero">
<path style=" stroke:none;fill-rule:nonzero;fill:rgb(98.039246%,75.289917%,58.428955%);fill-opacity:1;" d="M 162.207031 398.183594 L 162.207031 533.046875 L 121.742188 533.046875 C 99.394531 533.046875 81.277344 551.160156 81.277344 573.503906 C 81.277344 595.847656 99.394531 613.960938 121.742188 613.960938 L 162.207031 613.960938 L 162.207031 667.90625 C 162.207031 712.597656 198.4375 748.824219 243.136719 748.824219 L 310.582031 748.824219 L 310.582031 802.765625 L 607.328125 802.765625 L 607.328125 743.296875 C 607.328125 693.71875 618.871094 644.820312 641.046875 600.476562 C 663.222656 556.132812 674.769531 507.230469 674.769531 457.652344 L 674.769531 398.183594 L 162.207031 398.183594 "/>
</g>
<path style=" stroke:none;fill-rule:nonzero;fill:rgb(97.648621%,66.668701%,43.919373%);fill-opacity:1;" d="M 580.726562 570.324219 C 573.808594 584.144531 567.664062 598.585938 562.441406 613.242188 L 587.851562 622.292969 C 592.710938 608.660156 598.429688 595.234375 604.851562 582.378906 C 617.246094 557.601562 625.867188 531.050781 630.484375 503.480469 L 603.875 499.027344 C 599.707031 523.953125 591.914062 547.941406 580.726562 570.324219 "/>
<path style=" stroke:none;fill-rule:nonzero;fill:rgb(97.648621%,66.668701%,43.919373%);fill-opacity:1;" d="M 607.328125 452.128906 L 607.328125 457.652344 C 607.328125 464.402344 607.042969 471.25 606.492188 477.996094 L 633.375 480.207031 C 633.996094 472.726562 634.304688 465.140625 634.304688 457.652344 L 634.304688 452.128906 L 607.328125 452.128906 "/>
<path style=" stroke:none;fill-rule:nonzero;fill:rgb(97.648621%,66.668701%,43.919373%);fill-opacity:1;" d="M 221.746094 616.273438 C 205.847656 632.175781 184.699219 640.933594 162.207031 640.933594 L 162.207031 667.90625 C 191.90625 667.90625 219.824219 656.34375 240.828125 635.351562 L 252.675781 623.496094 L 233.601562 604.425781 L 221.746094 616.273438 "/>
<path style=" stroke:none;fill-rule:nonzero;fill:rgb(97.648621%,66.668701%,43.919373%);fill-opacity:1;" d="M 310.582031 775.796875 L 418.488281 775.796875 L 418.488281 748.824219 L 310.582031 748.824219 L 310.582031 775.796875 "/>
<path style=" stroke:none;fill-rule:nonzero;fill:rgb(97.648621%,67.059326%,12.159729%);fill-opacity:1;" d="M 81.277344 74.519531 L 108.253906 20.574219 L 135.230469 74.519531 L 202.671875 88.003906 L 162.207031 128.460938 L 175.695312 182.40625 L 108.253906 155.433594 L 40.8125 182.40625 L 54.300781 128.460938 L 13.835938 88.003906 L 81.277344 74.519531 "/>
<path style=" stroke:none;fill-rule:nonzero;fill:rgb(87.449646%,25.489807%,21.958923%);fill-opacity:1;" d="M 310.582031 398.183594 C 270.113281 263.324219 175.695312 182.40625 175.695312 182.40625 L 108.253906 155.433594 L 40.8125 182.40625 C 40.8125 182.40625 216.160156 263.324219 256.625 398.183594 L 310.582031 398.183594 "/>
<path style=" stroke:none;fill-rule:nonzero;fill:rgb(84.709167%,22.749329%,18.03894%);fill-opacity:1;" d="M 364.535156 398.183594 C 337.558594 222.863281 202.671875 88.003906 202.671875 88.003906 L 162.207031 128.460938 L 175.695312 182.40625 C 175.695312 182.40625 270.113281 263.324219 310.582031 398.183594 L 364.535156 398.183594 "/>
<path style=" stroke:none;fill-rule:nonzero;fill:rgb(87.449646%,25.489807%,21.958923%);fill-opacity:1;" d="M 712.164062 218.136719 L 623.925781 156.035156 L 690.136719 61.992188 C 711.414062 31.769531 747.949219 16.15625 784.507812 21.667969 C 802.027344 54.214844 799.65625 93.863281 778.375 124.089844 L 712.164062 218.136719 "/>
<path style=" stroke:none;fill-rule:nonzero;fill:rgb(97.648621%,67.059326%,12.159729%);fill-opacity:1;" d="M 753.449219 65.78125 C 741.285156 57.21875 724.421875 60.148438 715.859375 72.3125 C 711.710938 78.207031 710.109375 85.355469 711.34375 92.457031 C 712.574219 99.554688 716.5 105.742188 722.394531 109.894531 C 727.101562 113.203125 732.515625 114.796875 737.886719 114.796875 C 746.375 114.796875 754.738281 110.816406 759.980469 103.359375 C 768.542969 91.199219 765.613281 74.339844 753.449219 65.78125 "/>
<path style=" stroke:none;fill-rule:nonzero;fill:rgb(30.589294%,54.508972%,81.568909%);fill-opacity:1;" d="M 662.742188 100.898438 L 603.097656 91.902344 L 556.515625 158.070312 L 601.867188 140.511719 L 623.925781 156.035156 L 662.742188 100.898438 "/>
<path style=" stroke:none;fill-rule:nonzero;fill:rgb(30.589294%,54.508972%,81.568909%);fill-opacity:1;" d="M 750.984375 163 L 779.574219 216.101562 L 732.992188 282.273438 L 734.230469 233.664062 L 712.164062 218.136719 L 750.984375 163 "/>
<path style=" stroke:none;fill-rule:nonzero;fill:rgb(30.589294%,54.508972%,81.568909%);fill-opacity:1;" d="M 670.082031 254.484375 L 603.902344 207.910156 L 645.988281 171.5625 L 690.109375 202.609375 L 670.082031 254.484375 "/>
<path style=" stroke:none;fill-rule:nonzero;fill:rgb(97.648621%,67.059326%,12.159729%);fill-opacity:1;" d="M 580.351562 236.351562 C 580.351562 236.351562 512.90625 303.78125 512.90625 398.183594 L 580.351562 398.183594 C 634.304688 357.726562 647.792969 276.808594 647.792969 276.808594 L 580.351562 236.351562 "/>
<path style=" stroke:none;fill-rule:nonzero;fill:rgb(96.859741%,61.569214%,5.488586%);fill-opacity:1;" d="M 578.425781 351.179688 L 555.296875 337.300781 L 595.761719 269.867188 L 618.890625 283.75 L 578.425781 351.179688 "/>
<path style=" stroke:none;fill-rule:nonzero;fill:rgb(30.589294%,54.508972%,81.568909%);fill-opacity:1;" d="M 499.417969 87.996094 C 499.417969 125.234375 469.226562 155.429688 431.976562 155.429688 C 394.726562 155.429688 364.535156 125.234375 364.535156 87.996094 C 364.535156 50.753906 394.726562 20.566406 431.976562 20.566406 C 469.226562 20.566406 499.417969 50.753906 499.417969 87.996094 "/>
<path style=" stroke:none;fill-rule:nonzero;fill:rgb(39.219666%,73.329163%,90.979004%);fill-opacity:1;" d="M 370 83.558594 L 334.414062 92.140625 C 328.324219 93.609375 324.070312 98.996094 324.070312 105.242188 C 324.070312 106.285156 324.199219 107.363281 324.464844 108.457031 C 325.292969 111.921875 327.453125 114.878906 330.523438 116.761719 C 333.597656 118.636719 337.222656 119.203125 340.71875 118.359375 L 524.316406 74.144531 C 530.394531 72.675781 534.640625 67.292969 534.640625 61.058594 C 534.640625 60.011719 534.511719 58.929688 534.246094 57.839844 C 532.515625 50.648438 525.21875 46.175781 517.992188 47.921875 Z M 337.480469 145.722656 C 330.128906 145.722656 322.890625 143.707031 316.449219 139.777344 C 307.226562 134.132812 300.761719 125.242188 298.226562 114.738281 C 297.472656 111.566406 297.09375 108.378906 297.09375 105.242188 C 297.09375 86.496094 309.835938 70.324219 328.085938 65.917969 L 511.667969 21.699219 C 533.371094 16.472656 555.257812 29.871094 560.484375 51.5625 C 561.238281 54.730469 561.621094 57.910156 561.621094 61.058594 C 561.621094 79.800781 548.882812 95.957031 530.644531 100.363281 L 347.042969 144.582031 C 343.867188 145.347656 340.667969 145.722656 337.480469 145.722656 "/>
<path style=" stroke:none;fill-rule:nonzero;fill:rgb(30.589294%,54.508972%,81.568909%);fill-opacity:1;" d="M 365.90625 101.589844 C 365.007812 97.195312 364.535156 92.652344 364.535156 87.996094 C 364.535156 50.753906 394.726562 20.566406 431.976562 20.566406 C 462.40625 20.566406 488.128906 40.71875 496.527344 68.394531 "/>
<path style=" stroke:none;fill-rule:nonzero;fill:rgb(26.669312%,50.19989%,79.219055%);fill-opacity:1;" d="M 458.953125 74.511719 L 431.976562 74.511719 L 431.976562 47.539062 L 458.953125 47.539062 L 458.953125 74.511719 "/>
<path style=" stroke:none;fill-rule:nonzero;fill:rgb(97.648621%,67.059326%,12.159729%);fill-opacity:1;" d="M 54.300781 384.699219 L 54.300781 330.753906 L 94.765625 357.726562 L 135.230469 330.753906 L 135.230469 398.183594 L 175.695312 438.644531 L 108.253906 438.644531 L 81.277344 492.585938 L 59.359375 438.082031 L 13.835938 425.15625 L 54.300781 384.699219 "/>
<path style=" stroke:none;fill-rule:nonzero;fill:rgb(55.288696%,71.759033%,34.118652%);fill-opacity:1;" d="M 191.234375 405.328125 C 182.761719 391.785156 172.902344 378.824219 161.925781 366.828125 L 181.835938 348.625 C 193.914062 361.828125 204.773438 376.097656 214.113281 391.039062 L 191.234375 405.328125 "/>
<path style=" stroke:none;fill-rule:nonzero;fill:rgb(55.288696%,71.759033%,34.118652%);fill-opacity:1;" d="M 88.074219 308.449219 C 46.34375 284.621094 11.246094 276.566406 10.890625 276.488281 L 16.757812 250.160156 C 18.339844 250.507812 55.960938 259.050781 101.457031 285.027344 L 88.074219 308.449219 "/>
<g clip-path="url(#clip2)" clip-rule="nonzero">
<path style=" stroke:none;fill-rule:nonzero;fill:rgb(87.449646%,25.489807%,21.958923%);fill-opacity:1;" d="M 613.886719 52.222656 L 588.582031 42.871094 C 590.980469 36.378906 593.839844 24.898438 593.839844 7.085938 L 620.816406 7.085938 C 620.816406 24.589844 618.484375 39.777344 613.886719 52.222656 "/>
</g>
<path style=" stroke:none;fill-rule:nonzero;fill:rgb(55.288696%,71.759033%,34.118652%);fill-opacity:1;" d="M 660.28125 405.894531 L 640.921875 387.109375 C 641.277344 386.738281 676.792969 349.785156 685.875 314.46875 L 712 321.1875 C 701.113281 363.507812 661.941406 404.183594 660.28125 405.894531 "/>
<path style=" stroke:none;fill-rule:nonzero;fill:rgb(87.449646%,25.489807%,21.958923%);fill-opacity:1;" d="M 753.222656 357.917969 L 734.570312 338.425781 C 735.824219 337.238281 765.566406 309.304688 806.320312 314.566406 L 802.871094 341.324219 C 775.207031 337.746094 753.433594 357.710938 753.222656 357.917969 "/>
<path style=" stroke:none;fill-rule:nonzero;fill:rgb(97.648621%,67.059326%,12.159729%);fill-opacity:1;" d="M 809.65625 452.128906 L 782.675781 452.128906 L 782.675781 425.15625 L 755.699219 425.15625 L 755.699219 452.128906 L 728.722656 452.128906 L 728.722656 479.101562 L 755.699219 479.101562 L 755.699219 506.074219 L 782.675781 506.074219 L 782.675781 479.101562 L 809.65625 479.101562 L 809.65625 452.128906 "/>
<path style=" stroke:none;fill-rule:nonzero;fill:rgb(97.648621%,67.059326%,12.159729%);fill-opacity:1;" d="M 108.253906 667.90625 L 81.277344 667.90625 L 81.277344 640.933594 L 54.300781 640.933594 L 54.300781 667.90625 L 27.324219 667.90625 L 27.324219 694.878906 L 54.300781 694.878906 L 54.300781 721.851562 L 81.277344 721.851562 L 81.277344 694.878906 L 108.253906 694.878906 L 108.253906 667.90625 "/>
<path style=" stroke:none;fill-rule:nonzero;fill:rgb(87.449646%,25.489807%,21.958923%);fill-opacity:1;" d="M 728.722656 586.988281 L 701.746094 586.988281 L 701.746094 560.015625 L 728.722656 560.015625 L 728.722656 586.988281 "/>
<path style=" stroke:none;fill-rule:nonzero;fill:rgb(55.288696%,71.759033%,34.118652%);fill-opacity:1;" d="M 769.1875 640.933594 L 742.210938 640.933594 L 742.210938 613.960938 L 769.1875 613.960938 L 769.1875 640.933594 "/>
<path style=" stroke:none;fill-rule:nonzero;fill:rgb(87.449646%,25.489807%,21.958923%);fill-opacity:1;" d="M 27.324219 600.476562 L 0.34375 600.476562 L 0.34375 573.503906 L 27.324219 573.503906 L 27.324219 600.476562 "/>
<path style=" stroke:none;fill-rule:nonzero;fill:rgb(87.449646%,25.489807%,21.958923%);fill-opacity:1;" d="M 499.417969 465.613281 L 472.441406 465.613281 L 472.441406 438.644531 L 499.417969 438.644531 L 499.417969 465.613281 "/>
<path style=" stroke:none;fill-rule:nonzero;fill:rgb(55.288696%,71.759033%,34.118652%);fill-opacity:1;" d="M 445.464844 546.53125 L 418.488281 546.53125 L 418.488281 519.558594 L 445.464844 519.558594 L 445.464844 546.53125 "/>
<g clip-path="url(#clip3)" clip-rule="nonzero">
<path style=" stroke:none;fill-rule:nonzero;fill:rgb(87.449646%,25.489807%,21.958923%);fill-opacity:1;" d="M 189.183594 34.058594 L 162.207031 34.058594 L 162.207031 7.085938 L 189.183594 7.085938 L 189.183594 34.058594 "/>
</g>
<path style=" stroke:none;fill-rule:nonzero;fill:rgb(55.288696%,71.759033%,34.118652%);fill-opacity:1;" d="M 566.863281 222.863281 L 539.886719 222.863281 L 539.886719 195.894531 L 566.863281 195.894531 L 566.863281 222.863281 "/>
</g>
</svg>
