<svg width="259" height="259" viewBox="0 0 259 259" fill="none" xmlns="http://www.w3.org/2000/svg">
<path d="M76.8906 240.789C76.8906 239.179 76.2511 237.635 75.1127 236.497C73.9743 235.358 72.4303 234.719 70.8203 234.719H60.7031V189.677C69.93 187.249 76.8906 176.606 76.8906 163.898V149.734H36.4219V163.898C36.4219 176.606 43.3825 187.249 52.6094 189.677V234.719H42.4922C40.8822 234.719 39.3382 235.358 38.1998 236.497C37.0614 237.635 36.4219 239.179 36.4219 240.789C36.4219 242.399 37.0614 243.943 38.1998 245.081C39.3382 246.22 40.8822 246.859 42.4922 246.859H70.8203C72.4303 246.859 73.9743 246.22 75.1127 245.081C76.2511 243.943 76.8906 242.399 76.8906 240.789ZM28.3281 174.016V149.734C20.5177 149.734 12.1406 155.157 12.1406 161.875C12.1406 168.593 20.5177 174.016 28.3281 174.016ZM84.9844 149.734V174.016C92.7948 174.016 101.172 168.593 101.172 161.875C101.172 155.157 92.7948 149.734 84.9844 149.734Z" fill="#066904"/>
<path d="M186.156 145.971C197.331 145.971 206.391 136.912 206.391 125.736C206.391 114.561 197.331 105.502 186.156 105.502C174.981 105.502 165.922 114.561 165.922 125.736C165.922 136.912 174.981 145.971 186.156 145.971Z" fill="#CD2121"/>
<path d="M28.3281 61.5125L64.8714 86.3603L110.48 79.1164L105.138 49.2505L28.3281 61.5125Z" fill="#D67129"/>
<path d="M132.657 104.45L123.227 106.028H121.932C120.082 105.999 118.297 105.336 116.876 104.151C115.455 102.965 114.483 101.328 114.122 99.5127L111.856 86.8055L66.5306 94.0089L40.4688 129.5L134.882 114.041L132.657 104.45Z" fill="#0CB76F"/>
<path d="M234.719 93.0781C232.969 93.074 231.241 93.4612 229.66 94.2113C228.487 88.5456 227.313 82.9205 226.139 77.4977L214.484 12.1406L110.318 29.2589L122.458 97.2464L218.531 81.4231C219.705 87.0078 220.959 92.8353 222.214 98.7438C222.214 99.8364 222.659 100.929 222.902 102.022C222.653 103.068 222.544 104.143 222.578 105.219V129.5C222.578 147.387 213.392 161.875 182.109 161.875H188.018C156.735 161.875 133.547 176.363 133.547 194.25V234.719C133.547 237.939 134.826 241.027 137.103 243.303C139.38 245.58 142.468 246.859 145.687 246.859C148.907 246.859 151.995 245.58 154.272 243.303C156.549 241.027 157.828 237.939 157.828 234.719V210.721H165.922V230.267C178.488 222.093 193.271 217.994 208.252 218.531H202.344C209.194 218.677 216.024 217.734 222.578 215.739V179.6C237.106 170.212 246.859 156.371 246.859 145.688V105.219C246.859 101.999 245.58 98.9108 243.303 96.634C241.027 94.3572 237.939 93.0781 234.719 93.0781Z" fill="#D67129"/>
<path d="M40.4688 194.25H28.3281V202.344H40.4688V194.25Z" fill="#2492D0"/>
<path d="M36.4219 206.391H16.1875V214.484H36.4219V206.391Z" fill="#2492D0"/>
<path d="M28.3281 218.531H12.1406V226.625H28.3281V218.531Z" fill="#2492D0"/>
<path d="M84.9844 194.25H72.8438V202.344H84.9844V194.25Z" fill="#2492D0"/>
<path d="M97.125 206.391H76.8906V214.484H97.125V206.391Z" fill="#2492D0"/>
<path d="M101.172 218.531H84.9844V226.625H101.172V218.531Z" fill="#2492D0"/>
<rect x="114.013" y="50.087" width="105.661" height="21.9864" transform="rotate(-9.12 114.013 50.087)" fill="white"/>
<rect x="118" y="71.7475" width="105.661" height="25.7847" transform="rotate(-9.12 118 71.7475)" fill="#0CB76F"/>
<circle cx="172" cy="52" r="11" fill="#004483"/>
</svg>
